<svg width="88" height="104" viewBox="0 0 88 104" fill="none" xmlns="http://www.w3.org/2000/svg">
  <path
    d="M41.4118 104C38.5647 104 36.1283 102.983 34.1026 100.948C32.0769 98.9127 31.0623 96.4635 31.0588 93.6H51.7647C51.7647 96.46 50.7518 98.9092 48.7261 100.948C46.7004 102.986 44.2623 104.003 41.4118 104ZM0 88.4V78H10.3529V41.6C10.3529 34.4067 12.5098 28.0159 16.8235 22.4276C21.1373 16.8393 26.7451 13.1768 33.6471 11.44V7.80001C33.6471 5.63334 34.4028 3.79254 35.9143 2.27761C37.4259 0.762678 39.2583 0.00347848 41.4118 1.18182e-05C43.5652 -0.00345485 45.3994 0.755745 46.9143 2.27761C48.4293 3.79948 49.1834 5.64028 49.1765 7.80001V11.44C51.6784 12.0467 53.9871 12.9359 56.1026 14.1076C58.218 15.2793 60.1799 16.6435 61.9882 18.2L54.6118 25.61C52.8 24.1367 50.7725 22.9667 48.5294 22.1C46.2863 21.2333 43.9137 20.8 41.4118 20.8C35.7176 20.8 30.8431 22.8367 26.7882 26.91C22.7333 30.9833 20.7059 35.88 20.7059 41.6V78H82.8235V88.4H0ZM64.1882 59.93L56.9412 52.52C57.8039 51.6533 58.451 50.6133 58.8823 49.4C59.3137 48.1867 59.5294 46.8 59.5294 45.24C59.5294 43.68 59.3137 42.2708 58.8823 41.0124C58.451 39.754 57.8039 38.6932 56.9412 37.83L64.1882 30.55C66 32.37 67.4028 34.5367 68.3967 37.05C69.3906 39.5633 69.8858 42.2933 69.8823 45.24C69.8789 48.1867 69.382 50.9167 68.3915 53.43C67.4011 55.9433 66 58.11 64.1882 59.93ZM69.7529 65.52C72.2549 63.0067 74.1961 59.9733 75.5765 56.42C76.9569 52.8667 77.647 49.14 77.647 45.24C77.647 41.34 76.9569 37.6133 75.5765 34.06C74.1961 30.5067 72.2549 27.4733 69.7529 24.96L77.1294 17.68C80.6666 21.2333 83.3636 25.3708 85.2202 30.0924C87.0768 34.814 88.0034 39.8632 88 45.24C87.9965 50.6168 87.0699 55.666 85.2202 60.3876C83.3705 65.1092 80.6736 69.2467 77.1294 72.8L69.7529 65.52Z"
    fill="url(#paint0_linear_9151_722)" />
  <defs>
    <linearGradient id="paint0_linear_9151_722" x1="-6.55651e-07" y1="52" x2="88" y2="52"
      gradientUnits="userSpaceOnUse">
      <stop stop-color="#FE8C66" />
      <stop offset="1" stop-color="#9D92FF" />
    </linearGradient>
  </defs>
</svg>
